<?xml version="1.0" encoding="utf-8"?>
<!-- Generator: Adobe Illustrator 23.0.2, SVG Export Plug-In . SVG Version: 6.00 Build 0)  -->
<svg version="1.1" id="Capa_1" xmlns="http://www.w3.org/2000/svg" xmlns:xlink="http://www.w3.org/1999/xlink" x="0px" y="0px"
	 viewBox="0 0 50 50" style="enable-background:new 0 0 50 50;" xml:space="preserve">
<g>
	<path d="M14.7,23c-0.8,0-1.5,0.7-1.5,1.5s0.7,1.5,1.5,1.5c0.8,0,1.5-0.7,1.5-1.5S15.5,23,14.7,23z"/>
	<circle cx="23.9" cy="24.4" r="1.5"/>
	<g>
		<path d="M33.7,5.3c-8.7-3.8-19-1.5-25,5.7c-6.1,7.3-6.8,17.7-1.5,25.6c1.1,1.7,3.4,3.4,3.3,4.9c-0.1,1.4-2.7,2.7-5,4.7
			c8.2-0.1,15.5,0.6,22.8-0.4c9.7-1.3,16.7-8.8,18-18.7C47.4,18.2,42.3,9.2,33.7,5.3z M14.7,27.1c-1.5,0-2.7-1.2-2.7-2.7
			s1.2-2.7,2.7-2.7c1.5,0,2.7,1.2,2.7,2.7S16.2,27.1,14.7,27.1z M23.9,27.1c-1.5,0-2.7-1.2-2.7-2.7s1.2-2.7,2.7-2.7
			c1.5,0,2.7,1.2,2.7,2.7S25.4,27.1,23.9,27.1z M33.1,27.1c-1.5,0-2.7-1.2-2.7-2.7s1.2-2.7,2.7-2.7c1.5,0,2.7,1.2,2.7,2.7
			S34.6,27.1,33.1,27.1z"/>
		<circle cx="33.1" cy="24.4" r="1.5"/>
	</g>
</g>
</svg>
