<?xml version="1.0" encoding="utf-8"?>
<!-- Generator: Adobe Illustrator 23.0.2, SVG Export Plug-In . SVG Version: 6.00 Build 0)  -->
<svg version="1.1" id="Capa_1" xmlns="http://www.w3.org/2000/svg" xmlns:xlink="http://www.w3.org/1999/xlink" x="0px" y="0px"
	 viewBox="0 0 50 50" style="enable-background:new 0 0 50 50;" xml:space="preserve">
<path d="M24.9,9.5c7-6,14.9-5.9,20,0.2c3.7,4.4,3.7,9.5,1.8,14.6c-1.5,4.3-4.4,7.6-7.8,10.5c-1.2,1-2.4,2-3.7,2.9
	c-3.4,2.4-6.8,4.7-10.5,7.3c-5.1-3.8-10.3-7.5-15.2-11.6c-3.9-3.3-6.5-7.5-7.3-12.7c-1-5.8,1.5-11.3,6.5-14c5-2.8,10.8-2,15.3,1.9
	C24.2,8.8,24.5,9.1,24.9,9.5z"/>
</svg>
