<?xml version="1.0" encoding="utf-8"?>
<!-- Generator: Adobe Illustrator 23.0.2, SVG Export Plug-In . SVG Version: 6.00 Build 0)  -->
<svg version="1.1" id="Capa_1" xmlns="http://www.w3.org/2000/svg" xmlns:xlink="http://www.w3.org/1999/xlink" x="0px" y="0px"
	 viewBox="0 0 50 50" style="enable-background:new 0 0 50 50;" xml:space="preserve">
<path d="M46.5,25.7c0,5.7,0.2,11.4-0.1,17c-0.1,1.6-1,3.9-2.2,4.5c-1.2,0.6-3.6,0.1-5-0.7c-3.7-2.1-7.3-4.6-10.8-7.1
	c-2.4-1.7-4.5-1.6-6.8,0.1c-3.5,2.5-7.1,5-10.8,7.1c-1.4,0.8-3.8,1.3-5,0.6c-1.2-0.7-2.1-3-2.1-4.6C3.4,31.2,3.5,19.9,3.5,8.5
	c0-4.2,1.6-5.9,5.8-5.9c10.4-0.1,20.8-0.1,31.1,0c4.4,0,6,1.6,6.1,6.1C46.5,14.3,46.5,20,46.5,25.7z"/>
</svg>
